<?xml version="1.0"?>
<svg xmlns="http://www.w3.org/2000/svg" xmlns:xlink="http://www.w3.org/1999/xlink" xmlns:svgjs="http://svgjs.com/svgjs" version="1.1" width="512" height="512" x="0" y="0" viewBox="0 0 512 512" style="enable-background:new 0 0 512 512" xml:space="preserve" class=""><g><g xmlns="http://www.w3.org/2000/svg"><g><path d="m480 344c0-8.836 7.163-16 16-16v-16c-8.837 0-16-7.164-16-16s7.163-16 16-16v-16c-8.837 0-16-7.164-16-16s7.163-16 16-16v-16c-8.837 0-16-7.164-16-16s7.163-16 16-16v-16c-17.673 0-32-14.327-32-32h-384c0 17.673-14.327 32-32 32v16c8.837 0 16 7.164 16 16s-7.163 16-16 16v16c8.837 0 16 7.164 16 16s-7.163 16-16 16v16c8.837 0 16 7.164 16 16s-7.163 16-16 16v16c8.837 0 16 7.164 16 16s-7.163 16-16 16v16c17.673 0 32 14.327 32 32h384c0-17.673 14.327-32 32-32v-16c-8.837 0-16-7.164-16-16z" fill="#fcf2c5" data-original="#f06423" style="" class=""/></g><g><path d="m448 312c0-8.836 7.163-16 16-16v-16c-8.837 0-16-7.164-16-16s7.163-16 16-16v-16c-8.837 0-16-7.164-16-16s7.163-16 16-16v-16c-8.837 0-16-7.164-16-16s7.163-16 16-16v-16c-17.673 0-32-14.327-32-32h-384c0 17.673-14.327 32-32 32v16c8.837 0 16 7.164 16 16s-7.163 16-16 16v16c8.837 0 16 7.164 16 16s-7.163 16-16 16v16c8.837 0 16 7.164 16 16s-7.163 16-16 16v16c8.837 0 16 7.164 16 16s-7.163 16-16 16v16c17.673 0 32 14.327 32 32h384c0-17.673 14.327-32 32-32v-16c-8.837 0-16-7.164-16-16z" fill="#faa019" data-original="#faa019" style="" class=""/></g><g><path d="m32 312c0 2.918-.794 5.645-2.158 8h420.316c-1.364-2.355-2.158-5.082-2.158-8 0-8.836 7.163-16 16-16v-16c-8.837 0-16-7.164-16-16s7.163-16 16-16v-16c-8.837 0-16-7.164-16-16s7.163-16 16-16v-16c-8.837 0-16-7.164-16-16 0-2.918.794-5.645 2.158-8h-420.316c1.364 2.355 2.158 5.082 2.158 8 0 8.836-7.163 16-16 16v16c8.837 0 16 7.164 16 16s-7.163 16-16 16v16c8.837 0 16 7.164 16 16s-7.163 16-16 16v16c8.837 0 16 7.164 16 16z" fill="#fcf2c5" data-original="#fcf2c5" style="" class=""/></g><g fill="#f06423"><path d="m112 192h-32c-4.418 0-8 3.582-8 8s3.582 8 8 8h8v72c0 4.418 3.582 8 8 8s8-3.582 8-8v-72h8c4.418 0 8-3.582 8-8s-3.582-8-8-8z" fill="#fcf2c5" data-original="#f06423" style="" class=""/><path d="m400 192h-32c-4.418 0-8 3.582-8 8s3.582 8 8 8h8v72c0 4.418 3.582 8 8 8s8-3.582 8-8v-72h8c4.418 0 8-3.582 8-8s-3.582-8-8-8z" fill="#fcf2c5" data-original="#f06423" style="" class=""/><path d="m144 192c-4.418 0-8 3.582-8 8v80c0 4.418 3.582 8 8 8s8-3.582 8-8v-80c0-4.418-3.582-8-8-8z" fill="#fcf2c5" data-original="#f06423" style="" class=""/><path d="m192 208c4.411 0 8 3.589 8 8 0 4.418 3.582 8 8 8s8-3.582 8-8c0-13.234-10.766-24-24-24s-24 10.766-24 24v48c0 13.234 10.766 24 24 24s24-10.766 24-24c0-4.418-3.582-8-8-8s-8 3.582-8 8c0 4.411-3.589 8-8 8s-8-3.589-8-8v-48c0-4.411 3.589-8 8-8z" fill="#fcf2c5" data-original="#f06423" style="" class=""/><path d="m262.723 216.958 14.077-10.558c3.535-2.651 4.251-7.666 1.6-11.2-2.65-3.535-7.664-4.251-11.2-1.6l-19.2 14.4v-8c0-4.418-3.582-8-8-8s-8 3.582-8 8v80c0 4.418 3.582 8 8 8s8-3.582 8-8v-48h8c4.411 0 8 3.589 8 8v40c0 4.418 3.582 8 8 8s8-3.582 8-8v-40c0-10.901-7.305-20.128-17.277-23.042z" fill="#fcf2c5" data-original="#f06423" style="" class=""/><path d="m336 208c4.418 0 8-3.582 8-8s-3.582-8-8-8h-32c-4.418 0-8 3.582-8 8v80c0 4.418 3.582 8 8 8h32c4.418 0 8-3.582 8-8s-3.582-8-8-8h-24v-40h16c4.418 0 8-3.582 8-8s-3.582-8-8-8h-16v-8z" fill="#fcf2c5" data-original="#f06423" style="" class=""/></g><g><path d="m280 136h-80c-4.418 0-8-3.582-8-8s3.582-8 8-8h80c4.418 0 8 3.582 8 8s-3.582 8-8 8z" fill="#fcf2c5" data-original="#f06423" style="" class=""/></g><g><path d="m280 360h-80c-4.418 0-8-3.582-8-8s3.582-8 8-8h80c4.418 0 8 3.582 8 8s-3.582 8-8 8z" fill="#fcf2c5" data-original="#f06423" style="" class=""/></g><g><g><path d="m456 64h-16v-16c0-4.418 3.582-8 8-8 4.418 0 8 3.582 8 8z" fill="#fabe19" data-original="#fabe19" style=""/></g><g><path d="m480 72c0 4.418-3.582 8-8 8h-16v-16h16c4.418 0 8 3.582 8 8z" fill="#fabe19" data-original="#fabe19" style=""/></g><g><path d="m440 80h16v16c0 4.418-3.582 8-8 8-4.418 0-8-3.582-8-8z" fill="#fabe19" data-original="#fabe19" style=""/></g><g><path d="m416 72c0-4.418 3.582-8 8-8h16v16h-16c-4.418 0-8-3.582-8-8z" fill="#fabe19" data-original="#fabe19" style=""/></g></g><g><g><path d="m128 80h-16v-16c0-4.418 3.582-8 8-8 4.418 0 8 3.582 8 8z" fill="#fabe19" data-original="#fabe19" style=""/></g><g><path d="m152 88c0 4.418-3.582 8-8 8h-16v-16h16c4.418 0 8 3.582 8 8z" fill="#fabe19" data-original="#fabe19" style=""/></g><g><path d="m112 96h16v16c0 4.418-3.582 8-8 8-4.418 0-8-3.582-8-8z" fill="#fabe19" data-original="#fabe19" style=""/></g><g><path d="m88 88c0-4.418 3.582-8 8-8h16v16h-16c-4.418 0-8-3.582-8-8z" fill="#fabe19" data-original="#fabe19" style=""/></g></g><g><g><path d="m296 440h-16v-16c0-4.418 3.582-8 8-8 4.418 0 8 3.582 8 8z" fill="#fabe19" data-original="#fabe19" style=""/></g><g><path d="m320 448c0 4.418-3.582 8-8 8h-16v-16h16c4.418 0 8 3.582 8 8z" fill="#fabe19" data-original="#fabe19" style=""/></g><g><path d="m280 456h16v16c0 4.418-3.582 8-8 8-4.418 0-8-3.582-8-8z" fill="#fabe19" data-original="#fabe19" style=""/></g><g><path d="m256 448c0-4.418 3.582-8 8-8h16v16h-16c-4.418 0-8-3.582-8-8z" fill="#fabe19" data-original="#fabe19" style=""/></g></g></g></g></svg>
